<svg width="20" height="20" viewBox="0 0 20 20" fill="none" xmlns="http://www.w3.org/2000/svg">
<path d="M4.54422 6.65375H0.247375V19.5572H4.54422V6.65375Z" fill="#FFF9F9"/>
<path d="M18.6458 7.83238C17.7432 6.8471 16.5494 6.35437 15.0652 6.35437C14.5183 6.35437 14.0212 6.42164 13.5741 6.55627C13.1271 6.69081 12.7496 6.87957 12.4413 7.12265C12.1332 7.36574 11.8879 7.5914 11.7057 7.79963C11.5325 7.99743 11.3631 8.22783 11.1978 8.48847V6.65364H6.91382L6.92695 7.27872C6.93575 7.69551 6.94009 8.98015 6.94009 11.1328C6.94009 13.2857 6.93142 16.0937 6.914 19.5573H11.1978V12.3567C11.1978 11.9141 11.2453 11.5626 11.341 11.3019C11.5234 10.859 11.7988 10.4882 12.1679 10.1888C12.537 9.88909 12.9947 9.73936 13.5418 9.73936C14.2881 9.73936 14.8373 9.99758 15.1889 10.5141C15.5404 11.0305 15.7162 11.7445 15.7162 12.656V19.5569H20V12.1616C19.9997 10.2603 19.5487 8.81734 18.6458 7.83238Z" fill="#FFF9F9"/>
<path d="M2.42183 0.442749C1.70143 0.442749 1.11772 0.653404 0.670549 1.0743C0.223425 1.4953 0 2.02679 0 2.66929C0 3.30281 0.216995 3.83248 0.65103 4.25772C1.08493 4.68299 1.65793 4.89575 2.3697 4.89575H2.39574C3.12499 4.89575 3.71317 4.68318 4.16016 4.25772C4.60715 3.83248 4.82629 3.30299 4.81767 2.66929C4.809 2.02684 4.58749 1.4953 4.15359 1.0743C3.71974 0.653222 3.14227 0.442749 2.42183 0.442749Z" fill="#FFF9F9"/>
</svg>
