<svg width="20" height="18" viewBox="0 0 20 18" fill="none" xmlns="http://www.w3.org/2000/svg">
<path d="M20 2.79926C19.2639 3.12544 18.474 3.34665 17.6442 3.4454C18.4915 2.93799 19.1402 2.13315 19.4476 1.17707C18.6527 1.64697 17.7754 1.98818 16.8405 2.17315C16.0919 1.37455 15.0271 0.877136 13.8461 0.877136C11.5803 0.877136 9.74311 2.71429 9.74311 4.97887C9.74311 5.30004 9.77936 5.61374 9.84936 5.9137C6.44001 5.74246 3.41683 4.10903 1.39347 1.62697C1.03977 2.23187 0.838563 2.93671 0.838563 3.6891C0.838563 5.11259 1.56343 6.36861 2.66324 7.10344C1.99085 7.08096 1.35847 6.89599 0.804837 6.58854V6.63978C0.804837 8.62691 2.21958 10.2853 4.09546 10.6628C3.75177 10.7553 3.38935 10.8065 3.01441 10.8065C2.74948 10.8065 2.49327 10.7803 2.24206 10.7303C2.76445 12.3612 4.27919 13.5472 6.07386 13.5798C4.67036 14.6796 2.90069 15.3332 0.978563 15.3332C0.647386 15.3332 0.321177 15.3132 0 15.2769C1.81592 16.443 3.97177 17.1229 6.28883 17.1229C13.8362 17.1229 17.9617 10.8715 17.9617 5.45005L17.9479 4.9189C18.754 4.34397 19.4513 3.62161 20 2.79926Z" fill="#FFF9F9"/>
</svg>
