<svg width="20" height="20" viewBox="0 0 20 20" fill="none" xmlns="http://www.w3.org/2000/svg">
<g clip-path="url(#clip0)">
<path d="M20 3.79932C19.2639 4.1255 18.474 4.34671 17.6442 4.44547C18.4915 3.93805 19.1402 3.13321 19.4476 2.17713C18.6527 2.64703 17.7754 2.98824 16.8405 3.17321C16.0919 2.37462 15.0271 1.8772 13.8461 1.8772C11.5803 1.8772 9.74311 3.71435 9.74311 5.97893C9.74311 6.30011 9.77936 6.6138 9.84936 6.91377C6.44001 6.74252 3.41683 5.10909 1.39347 2.62703C1.03977 3.23194 0.838563 3.93677 0.838563 4.68916C0.838563 6.11265 1.56343 7.36867 2.66324 8.1035C1.99085 8.08102 1.35847 7.89605 0.804837 7.5886V7.63984C0.804837 9.62697 2.21958 11.2854 4.09546 11.6629C3.75177 11.7553 3.38935 11.8066 3.01441 11.8066C2.74948 11.8066 2.49327 11.7803 2.24206 11.7303C2.76445 13.3613 4.27919 14.5473 6.07386 14.5798C4.67036 15.6796 2.90069 16.3332 0.978563 16.3332C0.647386 16.3332 0.321177 16.3132 0 16.277C1.81592 17.443 3.97177 18.1229 6.28883 18.1229C13.8362 18.1229 17.9617 11.8716 17.9617 6.45011L17.9479 5.91896C18.754 5.34403 19.4513 4.62167 20 3.79932Z" fill="#363B47"/>
</g>
<defs>
<clipPath id="clip0">
<rect width="20" height="20" fill="white"/>
</clipPath>
</defs>
</svg>
