<svg width="112" height="112" viewBox="0 0 112 112" fill="none" xmlns="http://www.w3.org/2000/svg">
<path d="M56.0852 24.1406C40.2333 24.1406 27.2823 37.0916 27.2823 52.9436C27.2823 61.2322 30.9086 69.21 37.0214 74.5976C41.5802 79.1564 41.1657 88.8955 41.0621 88.9991C41.0621 89.5171 41.1657 89.9316 41.5802 90.346C41.891 90.6568 42.409 90.864 42.8235 90.864H69.2434C69.7615 90.864 70.1759 90.6568 70.4867 90.346C70.7975 90.0352 71.0048 89.5171 71.0048 88.9991C71.0048 88.8955 70.4867 79.1564 75.0455 74.5976C75.1491 74.494 75.2527 74.3904 75.3563 74.2868C81.3655 68.7956 84.8882 61.025 84.8882 52.9436C84.8882 37.0916 71.9372 24.1406 56.0852 24.1406ZM72.6625 71.9038C72.5589 72.0074 72.3517 72.2146 72.3517 72.3182C68.311 76.6698 67.5857 83.8187 67.4821 87.2378H44.5848C44.4812 83.8187 43.7559 76.3589 39.4044 71.9038C33.9132 67.1378 30.7013 60.1961 30.7013 52.84C30.7013 38.8529 41.9946 27.5597 55.9816 27.5597C69.9687 27.5597 81.2619 38.8529 81.2619 52.84C81.2619 60.1961 78.1537 67.1378 72.6625 71.9038Z" fill="white"/>
<path d="M55.9816 31.4968C55.0492 31.4968 54.2203 32.3256 54.2203 33.2581C54.2203 34.1906 55.0492 35.0194 55.9816 35.0194C66.446 35.0194 74.8382 43.5153 74.8382 53.876C74.8382 54.8085 75.6671 55.6374 76.5996 55.6374C77.5321 55.6374 78.3609 54.8085 78.3609 53.876C78.4645 41.5467 68.4146 31.4968 55.9816 31.4968Z" fill="white"/>
<path d="M67.4821 92.8326H44.4812C42.0982 92.8326 40.1296 94.8011 40.1296 97.1841C40.1296 99.5671 42.0982 101.536 44.4812 101.536H67.3785C69.8651 101.432 71.8336 99.5671 71.8336 97.1841C71.8336 94.8011 69.8651 92.8326 67.4821 92.8326ZM67.4821 97.9093H44.4812C44.0667 97.9093 43.6523 97.5985 43.6523 97.0805C43.6523 96.5624 43.9631 96.2516 44.4812 96.2516H67.3785C67.7929 96.2516 68.2073 96.5624 68.2073 97.0805C68.2073 97.5985 67.8965 97.9093 67.4821 97.9093Z" fill="white"/>
<path d="M64.063 103.297H47.9002C45.5173 103.297 43.5487 105.265 43.5487 107.648C43.5487 110.031 45.5173 112 47.9002 112H64.063C66.446 112 68.4146 110.031 68.4146 107.648C68.4146 105.162 66.446 103.297 64.063 103.297ZM64.063 108.374H47.9002C47.4858 108.374 47.0714 108.063 47.0714 107.545C47.0714 107.027 47.3822 106.716 47.9002 106.716H64.063C64.4775 106.716 64.8919 107.027 64.8919 107.545C64.8919 108.063 64.4775 108.374 64.063 108.374Z" fill="white"/>
<path d="M55.9816 15.5412C57.0177 15.5412 57.743 14.7123 57.743 13.7798V1.76133C57.743 0.828862 56.9141 0 55.9816 0C55.0492 0 54.2203 0.828862 54.2203 1.76133V13.7798C54.2203 14.7123 55.0492 15.5412 55.9816 15.5412Z" fill="white"/>
<path d="M85.3026 8.91027C84.4738 8.28862 83.4377 8.59944 82.9196 9.3247L76.2887 19.271C75.6671 20.0999 75.8743 21.2396 76.7032 21.7576C77.014 21.9648 77.3248 22.0685 77.6356 22.0685C78.2573 22.0685 78.7753 21.7576 79.0861 21.2396L85.7171 11.2932C86.3387 10.568 86.1315 9.42831 85.3026 8.91027Z" fill="white"/>
<path d="M34.9493 21.654C35.2601 21.654 35.5709 21.5504 35.8817 21.3432C36.7106 20.8252 36.9178 19.6855 36.3998 18.8566L29.9761 8.80666C29.458 7.9778 28.3184 7.77059 27.4895 8.28863C26.6606 8.80666 26.4534 9.94635 26.9715 10.7752L33.3951 20.8252C33.8096 21.4468 34.3276 21.654 34.9493 21.654Z" fill="white"/>
<path d="M22.4127 32.6364L11.9483 26.938C11.1195 26.5236 9.97978 26.8344 9.56535 27.6633C9.04731 28.4921 9.35814 29.6318 10.2906 30.0463L20.755 35.7447C21.0658 35.8483 21.273 35.9519 21.5839 35.9519C22.2055 35.9519 22.8271 35.6411 23.138 35.0194C23.5524 34.1906 23.2416 33.0509 22.4127 32.6364Z" fill="white"/>
<path d="M102.502 27.6633C102.087 26.8344 100.947 26.5236 100.119 26.938L89.5505 32.6364C88.7217 33.0509 88.4109 34.1906 88.8253 35.0194C89.1361 35.6411 89.7578 35.9519 90.3794 35.9519C90.6902 35.9519 91.0011 35.8483 91.2083 35.7447L101.776 30.0463C102.605 29.6318 102.916 28.4921 102.502 27.6633Z" fill="white"/>
</svg>
