<svg width="112" height="112" viewBox="0 0 112 112" fill="none" xmlns="http://www.w3.org/2000/svg">
<path d="M67.8125 41.5625C66.605 41.5625 65.625 42.5425 65.625 43.75C65.625 44.9575 66.605 45.9375 67.8125 45.9375C69.02 45.9375 70 44.9575 70 43.75C70 42.5425 69.02 41.5625 67.8125 41.5625Z" fill="white"/>
<path d="M109.436 97.0635L80.2377 67.8648C84.9944 60.6998 87.5 52.4027 87.5 43.75C87.5 19.6263 67.8737 0 43.75 0C19.6263 0 0 19.6263 0 43.75C0 67.8737 19.6263 87.5 43.75 87.5C52.4029 87.5 60.7001 84.9942 67.8648 80.2379L75.9356 88.3087C75.9367 88.3098 75.9378 88.3109 75.9391 88.3122L97.0633 109.436C98.7166 111.09 100.914 112 103.25 112C105.586 112 107.783 111.09 109.436 109.437C111.089 107.785 112 105.588 112 103.25C112 100.912 111.089 98.7151 109.436 97.0635ZM66.836 75.6278C66.836 75.628 66.8358 75.628 66.8356 75.6282C60.0834 80.5326 52.1008 83.125 43.75 83.125C22.0386 83.125 4.375 65.4614 4.375 43.75C4.375 22.0386 22.0386 4.375 43.75 4.375C65.4614 4.375 83.125 22.0386 83.125 43.75C83.125 52.1008 80.5326 60.0834 75.628 66.8358C73.1743 70.2161 70.2163 73.1743 66.836 75.6278ZM71.4254 77.611C73.6894 75.7588 75.759 73.6892 77.611 71.4254L83.8171 77.6315C81.9297 79.8591 79.8591 81.93 77.6315 83.8171L71.4254 77.611ZM106.343 106.343C105.516 107.17 104.418 107.625 103.25 107.625C102.082 107.625 100.984 107.17 100.157 106.343L80.7332 86.919C82.9485 85.0178 85.0178 82.9487 86.9188 80.7334L106.343 100.158C107.17 100.984 107.625 102.081 107.625 103.25C107.625 104.419 107.17 105.516 106.343 106.343Z" fill="white"/>
<path d="M43.75 8.75C24.4508 8.75 8.75 24.4508 8.75 43.75C8.75 63.0492 24.4508 78.75 43.75 78.75C63.0492 78.75 78.75 63.0492 78.75 43.75C78.75 24.4508 63.0492 8.75 43.75 8.75ZM43.75 74.375C26.8634 74.375 13.125 60.6366 13.125 43.75C13.125 26.8634 26.8634 13.125 43.75 13.125C60.6366 13.125 74.375 26.8634 74.375 43.75C74.375 60.6366 60.6366 74.375 43.75 74.375Z" fill="white"/>
<path d="M68.2642 34.3597C66.3806 29.4571 63.1008 25.2654 58.7792 22.2381C54.3548 19.1384 49.1577 17.5 43.75 17.5C42.5421 17.5 41.5625 18.4796 41.5625 19.6875C41.5625 20.8954 42.5421 21.875 43.75 21.875C52.7404 21.875 60.9505 27.5227 64.1804 35.929C64.5146 36.7988 65.3435 37.3325 66.2229 37.3325C66.4836 37.3325 66.7489 37.2855 67.0068 37.1864C68.1345 36.7531 68.6976 35.4876 68.2642 34.3597Z" fill="white"/>
</svg>
