<svg width="114" height="114" viewBox="0 0 114 114" fill="none" xmlns="http://www.w3.org/2000/svg">
<path d="M106.427 27.696C104.505 21.1663 100.52 15.4348 95.068 11.3598C84.3491 2.95193 74.3279 -0.533485 62.6052 0.0656744C56.4235 0.492501 50.2811 1.36998 44.227 2.6912C35.6548 4.41676 29.4299 7.42993 25.1919 11.9035C21.8314 15.482 19.2375 19.7095 17.5696 24.3264C16.8651 26.3497 16.2913 28.4159 15.8514 30.5124L15.6917 31.1999C15.2925 32.6772 14.7532 34.1131 14.0813 35.4878C13.6861 36.3691 13.2929 37.2514 12.9551 38.1485C12.5162 39.1538 12.3401 40.2541 12.443 41.3462C12.8286 43.0444 13.8125 44.5471 15.215 45.5793C16.1464 46.4328 16.7587 47.0321 16.7642 47.5776C16.6905 47.8617 16.5788 48.1345 16.432 48.3885C14.1565 53.1849 11.3682 57.7206 8.11595 61.9165C6.7522 63.5817 5.32165 65.5244 5.6111 67.5022C6.02501 69.0004 7.01493 70.2742 8.36465 71.0453C8.99276 71.4819 9.65537 71.8664 10.3463 72.1948C11.1663 72.6123 12.5394 73.3128 12.634 73.8129C12.7592 74.4545 12.6866 75.1189 12.4261 75.7183C12.144 76.313 11.851 76.8269 11.5985 77.2731C10.9009 78.5071 9.73196 80.5722 11.4945 82.0499C11.9046 82.4126 12.606 82.9639 13.2479 83.4544C12.7725 84.2894 12.5592 85.2481 12.6356 86.206C12.7382 86.9494 13.143 87.6176 13.7544 88.0531C14.1792 88.3546 14.6339 88.6171 15.0848 88.8751C16.2018 89.5117 16.6378 89.8085 16.7881 90.4012C16.8878 91.1749 16.8177 91.9611 16.5821 92.7048C16.4726 93.2028 16.365 93.7011 16.2982 94.1983C16.1074 95.9263 16.3254 97.6753 16.9348 99.3035C17.9207 102.911 21.5566 105.117 25.2119 104.326C30.6373 103.018 35.9881 101.418 41.241 99.5326C45.5121 102.055 48.21 109.689 48.9131 112.552C49.1229 113.401 49.8846 113.999 50.7594 114H98.7968C99.3991 113.999 99.9657 113.714 100.324 113.229C100.682 112.745 100.79 112.12 100.613 111.544C100.106 110.205 99.3835 108.958 98.474 107.852C97.959 107.195 97.501 106.496 97.1046 105.761C96.2485 104.008 95.5309 102.191 94.9578 100.327C93.8715 96.6575 93.122 92.8967 92.7184 89.0913C92.0466 83.4097 92.9043 77.6518 95.2027 72.4128C96.6092 69.5132 98.3395 66.7821 100.361 64.2719C101.509 62.7272 102.695 61.1299 103.764 59.445C106.763 54.786 108.376 49.3704 108.413 43.8297C108.528 38.3845 107.859 32.9511 106.427 27.696ZM104.614 43.7761C104.582 48.615 103.173 53.3448 100.552 57.4127C99.5598 58.9768 98.417 60.5169 97.311 62.0069C95.117 64.7473 93.2414 67.7284 91.7207 70.8925C89.1508 76.753 88.1929 83.1935 88.9466 89.5482C89.3766 93.5793 90.1734 97.5626 91.3272 101.449C91.9571 103.497 92.7449 105.492 93.6836 107.418C94.177 108.36 94.7539 109.256 95.4074 110.095C95.4334 110.13 95.4592 110.165 95.4833 110.2H52.1979C50.9326 105.691 48.6399 101.536 45.4999 98.0609C45.997 97.8875 46.4684 97.7222 46.9064 97.5682C48.3293 97.0701 49.4019 96.6934 49.9418 96.5235C58.0871 93.9668 62.1617 90.2651 62.0503 85.5206C62.0259 84.4713 61.1551 83.6405 60.1059 83.6653C59.0568 83.69 58.2258 84.5605 58.2505 85.6097C58.2969 87.5673 56.6958 90.4208 48.8007 92.8989C48.2403 93.0761 47.1252 93.4649 45.6502 93.9826C44.2882 94.4595 42.6109 95.0466 40.7758 95.6738L40.7647 95.6776C35.4166 97.6129 29.9678 99.2581 24.4424 100.606C22.6628 100.951 20.9299 99.8239 20.5237 98.0571C20.1125 96.9899 19.9555 95.8417 20.0655 94.7033C20.1174 94.3101 20.2065 93.9167 20.2937 93.5232C20.6834 92.2051 20.7439 90.8115 20.4701 89.4645C19.9257 87.7196 18.647 86.299 16.9689 85.5745C16.8335 85.4975 16.6961 85.4195 16.5625 85.3407C16.7654 84.9253 17.0089 84.5307 17.2899 84.1636C17.6068 83.7599 17.7466 83.2453 17.6778 82.7368C17.609 82.2285 17.3371 81.7694 16.9246 81.4646C16.4681 81.1277 15.3827 80.3141 14.6016 79.6907C14.698 79.5135 14.8076 79.3195 14.9078 79.1443C15.199 78.6284 15.533 78.0339 15.8578 77.3519C16.4659 76.0229 16.6442 74.5371 16.3681 73.1019C15.9246 70.7725 13.6981 69.6379 12.0727 68.8085C11.5219 68.5478 10.9937 68.2419 10.4937 67.8938C10.0989 67.6198 9.72484 67.3167 9.37483 66.9874C9.38039 66.7018 9.67719 66.0069 11.1394 64.2227C14.535 59.8456 17.4458 55.1131 19.821 50.1083C20.2784 49.3243 20.534 48.4391 20.5652 47.532C20.3719 45.6178 19.3561 43.8825 17.782 42.7766C17.0138 42.0734 16.2884 41.409 16.2067 40.8266C16.2138 40.365 16.3176 39.9099 16.5111 39.4907C16.8228 38.6622 17.1884 37.8515 17.5502 37.0397C18.325 35.4444 18.9422 33.7769 19.3927 32.0614L19.5541 31.3685C19.9582 29.4283 20.4861 27.5161 21.1349 25.6434C22.6256 21.5092 24.9445 17.7227 27.9499 14.5163C31.631 10.631 37.2011 7.98144 44.9773 6.41641C50.8487 5.13348 56.8055 4.27894 62.8007 3.85968C73.5548 3.31886 82.78 6.54733 92.7273 14.3513C97.5604 17.9164 101.089 22.9696 102.773 28.7347C104.102 33.6347 104.723 38.7 104.614 43.7761Z" fill="white"/>
<path d="M96.5077 30.7286H92.5685C92.131 29.2419 91.5356 27.8063 90.7929 26.4463L93.5798 23.6593C94.2311 23.0083 94.3219 21.9841 93.7951 21.2286C91.9685 18.6078 89.6918 16.3314 87.071 14.5045C86.3164 13.9759 85.2909 14.0663 84.6403 14.7187L81.8533 17.5056C80.4927 16.7627 79.0564 16.1673 77.569 15.73V11.7901C77.5686 10.8699 76.9089 10.0822 76.0031 9.91985C72.857 9.365 69.6381 9.365 66.492 9.91985C65.5861 10.0822 64.9266 10.8699 64.9261 11.7901V15.7302C63.4388 16.1675 62.0025 16.7629 60.6418 17.5059L57.8549 14.7189C57.2043 14.0665 56.179 13.9761 55.4242 14.5047C52.8033 16.3314 50.5267 18.608 48.7 21.2289C48.1733 21.9841 48.2639 23.0085 48.9154 23.6596L51.7023 26.4465C50.9595 27.8065 50.3642 29.2421 49.9266 30.7288H45.9877C45.0672 30.7286 44.279 31.3885 44.1174 32.2947C43.5583 35.441 43.5583 38.6613 44.1174 41.8076C44.279 42.7138 45.0672 43.3737 45.9877 43.3735H49.9269C50.3644 44.8601 50.9598 46.2958 51.7025 47.6558L48.9156 50.4427C48.2643 51.0938 48.1735 52.118 48.7003 52.8734C50.5269 55.4943 52.8035 57.7709 55.4244 59.5976C56.1799 60.1235 57.2034 60.0333 57.8551 59.3834L60.6421 56.5964C62.0027 57.3394 63.439 57.9348 64.9263 58.3721V62.3122C64.9268 63.2324 65.5865 64.0201 66.4923 64.1824C69.6381 64.7404 72.8575 64.7404 76.0033 64.1824C76.9093 64.0201 77.5688 63.2324 77.5693 62.3122V58.3721C79.0566 57.9348 80.4929 57.3394 81.8536 56.5964L84.6405 59.3834C85.292 60.0335 86.3158 60.1239 87.0712 59.5976C89.6921 57.7709 91.9687 55.4943 93.7953 52.8734C94.3221 52.1182 94.2315 51.0938 93.58 50.4427L90.7931 47.6558C91.5359 46.2956 92.1312 44.8601 92.5687 43.3735H96.5079C97.4284 43.3737 98.2166 42.7138 98.3782 41.8076C98.9373 38.6613 98.9373 35.441 98.3782 32.2947C98.2163 31.3885 97.4282 30.7286 96.5077 30.7286ZM94.8621 39.5737H91.0952C90.2031 39.5735 89.4311 40.1942 89.2399 41.0655C88.7843 43.1491 87.9612 45.1347 86.8092 46.9297C86.3249 47.6809 86.4306 48.6686 87.0634 49.3001L89.7297 51.9664C88.6734 53.2807 87.4776 54.4763 86.1635 55.5326L83.4972 52.8672C82.8657 52.2355 81.8796 52.1289 81.1277 52.6112C79.3322 53.7645 77.3455 54.5881 75.2608 55.0436C74.3896 55.2353 73.769 56.0071 73.769 56.899V60.6656C72.0929 60.8455 70.4021 60.8455 68.7259 60.6656V56.899C68.7259 56.0071 68.1054 55.2351 67.2341 55.0436C65.1494 54.5881 63.1627 53.7645 61.3672 52.6112C60.616 52.1269 59.6283 52.2338 58.9978 52.8672L56.3315 55.5326C55.0172 54.4763 53.8215 53.2804 52.7653 51.9664L55.4315 49.3001C56.0641 48.6686 56.1701 47.6812 55.6858 46.9297C54.5338 45.1349 53.7106 43.1491 53.2551 41.0655C53.0638 40.1942 52.2917 39.5735 51.3997 39.5737H47.6333C47.4527 37.8969 47.4527 36.2056 47.6333 34.5288H51.3999C52.2921 34.529 53.0641 33.9083 53.2553 33.037C53.7109 30.9535 54.534 28.9678 55.686 27.1728C56.1703 26.4216 56.0645 25.4341 55.4317 24.8024L52.7655 22.1362C53.8217 20.8218 55.0176 19.6262 56.3317 18.5699L58.998 21.2353C59.6285 21.8685 60.616 21.9754 61.3675 21.4914C63.1629 20.338 65.1497 19.5144 67.2344 19.0589C68.1056 18.8672 68.7261 18.0955 68.7261 17.2035V13.4369C70.4023 13.257 72.0931 13.257 73.7692 13.4369V17.2035C73.7692 18.0955 74.3898 18.8674 75.261 19.0589C77.3457 19.5144 79.3325 20.338 81.1279 21.4914C81.8798 21.9734 82.8657 21.8668 83.4974 21.2353L86.1637 18.5699C87.478 19.6262 88.6736 20.8221 89.7299 22.1362L87.0636 24.8024C86.4311 25.4339 86.3251 26.4214 86.8094 27.1728C87.9614 28.9676 88.7845 30.9535 89.2401 33.037C89.4313 33.9083 90.2035 34.529 91.0954 34.5288H94.8621C95.0426 36.2054 95.0426 37.8969 94.8621 39.5737Z" fill="white"/>
<path d="M45.5981 55.1009H43.4281C43.2511 54.4207 42.9794 53.7687 42.621 53.1642L44.1581 51.6266C44.9 50.8847 44.9 49.6819 44.1581 48.9398C43.4163 48.198 42.2135 48.198 41.4714 48.9398L39.934 50.4775C39.3295 50.1195 38.6778 49.8478 37.998 49.6706V47.5008C37.998 46.4515 37.1472 45.6009 36.0981 45.6009C35.049 45.6009 34.1982 46.4517 34.1982 47.5008V49.6706C33.5182 49.8478 32.8665 50.1195 32.2622 50.4775L30.725 48.9398C30.2452 48.4598 29.5456 48.2725 28.8899 48.4482C28.2342 48.6239 27.7223 49.136 27.5467 49.7915C27.371 50.447 27.5585 51.1465 28.0383 51.6266L29.5755 53.1642C29.217 53.7687 28.9454 54.4207 28.7684 55.1009H26.5984C25.549 55.1009 24.6985 55.9514 24.6985 57.0008C24.6985 58.0501 25.549 58.9007 26.5984 58.9007H28.7684C28.9454 59.5809 29.217 60.2328 29.5755 60.8373L28.0383 62.375C27.5585 62.855 27.371 63.5543 27.5467 64.2101C27.7223 64.8655 28.2344 65.3777 28.8899 65.5533C29.5454 65.729 30.245 65.5415 30.725 65.0617L32.2622 63.5241C32.8667 63.8821 33.5184 64.1537 34.1984 64.331V66.5007C34.1984 67.5501 35.049 68.4006 36.0983 68.4006C37.1477 68.4006 37.9982 67.5501 37.9982 66.5007V64.331C38.6782 64.1537 39.3299 63.8821 39.9342 63.5241L41.4714 65.0617C42.2133 65.8036 43.416 65.8036 44.1581 65.0617C44.9 64.3198 44.9 63.1168 44.1581 62.375L42.621 60.8373C42.9794 60.2328 43.2511 59.5809 43.4281 58.9007H45.5981C46.6474 58.9007 47.4979 58.0501 47.4979 57.0008C47.4979 55.9514 46.6474 55.1009 45.5981 55.1009ZM36.0981 60.8008C33.9994 60.8008 32.2981 59.0995 32.2981 57.0008C32.2981 54.902 33.9994 53.2007 36.0981 53.2007C38.1968 53.2007 39.8981 54.902 39.8981 57.0008C39.8957 59.0984 38.1957 60.7983 36.0981 60.8008Z" fill="white"/>
<path d="M26.1522 36.1012C26.2693 36.4824 26.4223 36.8518 26.6088 37.2042L25.5813 38.2322C25.1015 38.7123 24.914 39.4116 25.0897 40.0673C25.2653 40.7228 25.7774 41.2349 26.4329 41.4106C27.0884 41.5863 27.788 41.3988 28.268 40.919L29.2985 39.8881C29.6501 40.0738 30.0181 40.2263 30.3979 40.3436V41.8013C30.3979 42.8507 31.2485 43.7012 32.2978 43.7012C33.3472 43.7012 34.1977 42.8507 34.1977 41.8013V40.3436C34.5776 40.2265 34.9456 40.074 35.2972 39.8881L36.3279 40.9192C37.0697 41.6611 38.2727 41.6611 39.0146 40.9192C39.7565 40.1773 39.7565 38.9743 39.0146 38.2324L37.9869 37.2042C38.1737 36.8518 38.3266 36.4826 38.4437 36.1014H39.8977C40.947 36.1014 41.7976 35.2507 41.7976 34.2015C41.7976 33.1522 40.947 32.3016 39.8977 32.3016H38.4437C38.3266 31.9204 38.1737 31.5513 37.9869 31.1988L39.0146 30.1706C39.4947 29.6906 39.6819 28.9912 39.5062 28.3355C39.3306 27.68 38.8185 27.1679 38.163 26.9922C37.5075 26.8166 36.8079 27.004 36.3279 27.4839L35.2972 28.515C34.9456 28.3293 34.5776 28.177 34.1977 28.0599V26.6017C34.1977 25.5523 33.3472 24.7018 32.2978 24.7018C31.2485 24.7018 30.3979 25.5523 30.3979 26.6017V28.0601C30.0181 28.1772 29.6501 28.3295 29.2985 28.5152L28.2678 27.4839C27.5259 26.742 26.3232 26.742 25.5811 27.4839C24.8392 28.2257 24.8392 29.4285 25.5811 30.1706L26.6088 31.1988C26.422 31.5513 26.2691 31.9204 26.152 32.3016H24.698C23.6487 32.3016 22.7981 33.1524 22.7981 34.2015C22.7981 35.2509 23.6489 36.1014 24.698 36.1014H26.1522V36.1012ZM31.609 31.6303C32.7721 31.3184 34 31.8267 34.6023 32.8696C35.2046 33.9125 35.0314 35.23 34.1797 36.0816C33.4191 36.8429 32.2745 37.0709 31.2801 36.6592C30.2857 36.2475 29.6374 35.2772 29.6374 34.2011C29.6371 32.9967 30.4458 31.9423 31.609 31.6303Z" fill="white"/>
<path d="M71.2477 24.7014C64.4272 24.7014 58.8978 30.2305 58.8978 37.0513C58.9056 43.8687 64.4303 49.3932 71.2477 49.4012C78.0682 49.4012 83.5976 43.872 83.5976 37.0513C83.5976 30.2305 78.0682 24.7014 71.2477 24.7014ZM71.2477 45.6009C66.5257 45.6009 62.6978 41.7731 62.6978 37.051C62.7029 32.3312 66.5279 28.5063 71.2477 28.5012C75.9697 28.5012 79.7976 32.329 79.7976 37.051C79.7976 41.7731 75.9697 45.6009 71.2477 45.6009Z" fill="white"/>
</svg>
