<svg width="68" height="39" viewBox="0 0 68 39" fill="none" xmlns="http://www.w3.org/2000/svg">
<rect width="68" height="39" rx="5" fill="white"/>
<path d="M22.4629 23.8936C22.4629 24.3089 22.3161 24.6562 22.0225 24.9355C21.7288 25.2148 21.3242 25.3545 20.8086 25.3545C20.293 25.3545 19.8883 25.2148 19.5947 24.9355C19.3011 24.6562 19.1543 24.3089 19.1543 23.8936C19.1543 23.4782 19.3011 23.1309 19.5947 22.8516C19.8883 22.5723 20.293 22.4326 20.8086 22.4326C21.3242 22.4326 21.7288 22.5723 22.0225 22.8516C22.3161 23.1309 22.4629 23.4782 22.4629 23.8936ZM33.5381 15.2461V16.6211C34.4619 15.9551 35.1888 15.5111 35.7188 15.2891C36.2559 15.0671 36.7572 14.9561 37.2227 14.9561C37.9388 14.9561 38.6335 15.221 39.3066 15.751C39.765 16.109 39.9941 16.4743 39.9941 16.8467C39.9941 17.1618 39.8831 17.4303 39.6611 17.6523C39.4463 17.8672 39.1849 17.9746 38.877 17.9746C38.6048 17.9746 38.3184 17.8385 38.0176 17.5664C37.7168 17.2943 37.4482 17.1582 37.2119 17.1582C36.904 17.1582 36.4421 17.3516 35.8262 17.7383C35.2174 18.125 34.4548 18.7051 33.5381 19.4785V22.7979H36.6748C37.2048 22.7979 37.5807 22.9017 37.8027 23.1094C38.0319 23.3099 38.1465 23.5749 38.1465 23.9043C38.1465 24.2266 38.0319 24.4915 37.8027 24.6992C37.5807 24.8997 37.2048 25 36.6748 25H30.0254C29.4954 25 29.1159 24.8997 28.8867 24.6992C28.6647 24.4915 28.5537 24.223 28.5537 23.8936C28.5537 23.5713 28.6647 23.3099 28.8867 23.1094C29.1159 22.9017 29.4954 22.7979 30.0254 22.7979H31.3359V17.4482H30.541C30.0111 17.4482 29.6315 17.348 29.4023 17.1475C29.1803 16.9398 29.0693 16.6712 29.0693 16.3418C29.0693 16.0195 29.1803 15.7581 29.4023 15.5576C29.6315 15.3499 30.0111 15.2461 30.541 15.2461H33.5381ZM46.6113 16.6104V24.0977H50.5752C50.79 24.0977 50.944 24.1406 51.0371 24.2266C51.1302 24.3053 51.1768 24.4128 51.1768 24.5488C51.1768 24.6777 51.1302 24.7852 51.0371 24.8711C50.944 24.957 50.79 25 50.5752 25H43.5176C43.3027 25 43.1488 24.957 43.0557 24.8711C42.9626 24.7852 42.916 24.6777 42.916 24.5488C42.916 24.4128 42.9626 24.3053 43.0557 24.2266C43.1488 24.1406 43.3027 24.0977 43.5176 24.0977H45.6982V16.6104H43.7432C43.5283 16.6104 43.3743 16.5674 43.2812 16.4814C43.1882 16.3955 43.1416 16.2845 43.1416 16.1484C43.1416 16.0195 43.1882 15.9121 43.2812 15.8262C43.3743 15.7402 43.5283 15.6973 43.7432 15.6973H45.6982V14.333C45.6982 13.5739 46.0062 12.915 46.6221 12.3564C47.238 11.7979 48.0544 11.5186 49.0713 11.5186C49.9235 11.5186 50.833 11.5973 51.7998 11.7549C52.165 11.8122 52.3835 11.8802 52.4551 11.959C52.5339 12.0378 52.5732 12.1416 52.5732 12.2705C52.5732 12.3994 52.5303 12.5068 52.4443 12.5928C52.3584 12.6715 52.2438 12.7109 52.1006 12.7109C52.0433 12.7109 51.9466 12.7002 51.8105 12.6787C50.7292 12.514 49.8161 12.4316 49.0713 12.4316C48.2835 12.4316 47.6748 12.625 47.2451 13.0117C46.8226 13.3984 46.6113 13.8389 46.6113 14.333V15.6973H50.833C51.0479 15.6973 51.2018 15.7402 51.2949 15.8262C51.388 15.9121 51.4346 16.0231 51.4346 16.1592C51.4346 16.2881 51.388 16.3955 51.2949 16.4814C51.2018 16.5674 51.0479 16.6104 50.833 16.6104H46.6113Z" fill="black"/>
</svg>
